#!OML:ASF F:\VICON\USERDATA\INSTALL\rory3\rory3.ASF
:FULLY-SPECIFIED
:DEGREES
1
root 0.3625055169687186 17.56329917387336 -13.854489921050881 5.811352507409028 0.3644685420176801 -1.790361166929082
lfemur -9.336055088542434 8.154407617471717 -16.928205564947667
ltibia 15.461307559590491
lfoot -10.322100584093475 4.063854438620332
ltoes -8.40595283220327
rfemur -11.035305101357357 -3.9804744965151917 20.63780011383579
rtibia 18.949306577786082
rfoot -13.08380050823036 -1.380262752911424
rtoes 4.408744366973897
lowerback -4.775814785613084 -0.826762725262825 0.8042731435262405
upperback 1.5494177673453045 -1.2239116765300282 1.6609762524178822
thorax 4.299383112949587 -0.6095595719660543 1.1615053597614178
lowerneck -13.366497970335375 -0.45971308333417116 -2.7677301280166215
upperneck 6.768472741979095 -0.2875097772811315 1.6403085042902243
head 4.197353185594977 -0.1188075539238791 0.9309213803230623
lclavicle 1.8617362801148818e-16 -2.3548357810261824e-15
lhumerus -22.77840224956126 -0.5811940134821951 89.56049494164289
lradius 18.92140330267218
lwrist 1.8787935984941542
lhand -24.37429926083581 -2.994153519326564
lfingers 7.12502
lthumb 2.1158307392723845 26.975086470879003
rclavicle 1.8617362801148818e-16 -2.3548357810261824e-15
rhumerus -25.89289879088832 -21.898293296480162 -79.1269987568752
rradius 24.411501104582477
rwrist 34.26280538567958
rhand -16.882210341224702 -27.157789105306676
rfingers 7.12502
rthumb 9.348979736798455 -56.93048983973876
2
root 0.3683503275804283 17.562499173715402 -13.852889703213975 5.778502556668149 0.42770117983455025 -1.7332917236476388
lfemur -9.286454908267304 8.221907301645816 -17.008405150228672
ltibia 15.414407472816844
lfoot -10.3496005404077 3.9406145683845053
ltoes -8.42325280214064
rfemur -11.015105787444194 -3.964484633343757 20.550600670003977
rtibia 19.014006729530873
rfoot -13.11310048150991 -1.447822570411099
rtoes 4.358134462964609
lowerback -4.797074262348039 -0.8211827927471314 0.810252050008516
upperback 1.5530277456078623 -1.2172717545033103 1.6598362808489728
thorax 4.314922881362531 -0.6060526209958847 1.15722542136965
lowerneck -13.440697702892434 -0.42968517898848735 -2.788099917307006
upperneck 6.573232979983658 -0.23822698162503442 1.6173186125449277
head 4.1479532974163105 -0.0953794472153735 0.9304003976758737
lclavicle 1.8617364030067506e-16 -2.3548357482875678e-15
lhumerus -22.884402026850083 -0.1577604524982088 89.36159509379763
lradius 18.663503850196943
lwrist 1.5657740805055886
lhand -24.309099606378272 -3.1281528443687345
lfingers 7.12502
lthumb 2.1787903920620213 26.840487053014083
rclavicle 1.8617364030067506e-16 -2.3548357482875678e-15
rhumerus -25.860498791368173 -22.127893066636613 -78.93419907549303
rradius 24.266401407555612
rwrist 34.48600493119615
rhand -17.01400975701441 -27.082789672947488
rfingers 7.12502
rthumb 9.221840153301818 -56.86119036239467
3
root 0.37634209997156365 17.561699185713284 -13.852688909596509 5.7425925206696435 0.47663499269749043 -1.715491902208099
lfemur -9.259344863721925 8.25899713409396 -17.05000489685624
ltibia 15.418006767198776
lfoot -10.38130051673789 3.837464728088588
ltoes -8.342122903133683
rfemur -10.966605294250115 -3.912124949865191 20.501100983676046
rtibia 19.019406944989143
rfoot -13.118500483191564 -1.552882429054706
rtoes 4.287834360740447
lowerback -4.804374562596486 -0.808748993015056 0.8452445010603014
upperback 1.5653576618205713 -1.2040618963760148 1.6776760011791654
thorax 4.331373081470239 -0.5987877952323033 1.157015433312962
lowerneck -13.452297707526885 -0.44719707742182324 -2.820219583464017
upperneck 6.293733053138085 -0.2468739868792751 1.5429989899143832
head 4.063793612697571 -0.10360968974754226 0.9114877098950089
lclavicle 1.8617364153399161e-16 -2.3548357698334575e-15
lhumerus -23.009501972403793 0.14955914604247544 89.25239527260125
lradius 18.563603976155957
lwrist 1.3281242310491423
lhand -24.297199671653388 -3.392741662059224
lfingers 7.12502
lthumb 2.1903203261309976 26.57578817129827
rclavicle 1.8617364153399161e-16 -2.3548357698334575e-15
rhumerus -25.83039882542997 -22.00189330054295 -78.84579921878517
rradius 24.306001315160895
rwrist 34.44360487965781
rhand -17.028909781870386 -27.048689994942496
rfingers 7.12502
rthumb 9.207470339786891 -56.827690647102585
4
root 0.3862657909917399 17.560699185515837 -13.855789714849438 5.699722729587767 0.502278851073086 -1.699052071328786
lfemur -9.233595117992738 8.314396888973667 -17.102204610531345
ltibia 15.423906796859042
lfoot -10.403700479583959 3.7110451156653443
ltoes -8.212163123903835
rfemur -10.931705151487705 -3.879815076674017 20.44210135270666
rtibia 19.031306524618948
rfoot -13.12510046495731 -1.6045923287366133
rtoes 4.304644499365731
lowerback -4.807734580232291 -0.7870813339080728 0.8392955949886711
upperback 1.5863775297880531 -1.1763921650492826 1.704895560125929
thorax 4.355442814493112 -0.585597062463086 1.190724928102047
lowerneck -13.346598018139662 -0.4056482986553873 -2.6904709280376617
upperneck 5.530203686964581 -0.1895672353843625 1.2751103392714471
head 4.256822970091525 -0.09076240068462449 0.9052718174642338
lclavicle 1.8617364886785117e-16 -2.3548357647967395e-15
lhumerus -23.113801842576507 0.12803009002111487 89.29439528169364
lradius 18.56050386248616
lwrist 1.3076943055286074
lhand -24.285899731551225 -3.0239132616957294
lfingers 7.12502
lthumb 2.2012602693809056 26.94448662130616
rclavicle 1.8617364886785117e-16 -2.3548357647967395e-15
rhumerus -25.74539897570826 -21.795093551184593 -78.80439925594561
rradius 24.4224010934576
rwrist 34.32490534775926
rhand -16.930910115805283 -27.195288899549368
rfingers 7.12502
rthumb 9.301979958792524 -56.97008956342518
5
root 0.39739646752809654 17.559999191455542 -13.859289041785889 5.676372580319887 0.5102478611003203 -1.6789322686541865
lfemur -9.228425154303183 8.364336620786604 -17.163704237208627
ltibia 15.439607556929843
lfoot -10.433500468351724 3.5897850431326312
ltoes -7.962273594333935
rfemur -10.918905740969423 -3.8509452466146232 20.37610178652223
rtibia 19.039506979678656
rfoot -13.126900453344097 -1.6390323006696355
rtoes 4.300394530345455
lowerback -4.79157442437991 -0.7634036923345495 0.8039321512433746
upperback 1.5659776654094089 -1.1427125015771862 1.7280652180626173
thorax 4.325763088074874 -0.5701963909704388 1.2376942556794275
lowerneck -13.280998242624012 -0.3739335540315438 -2.656101281652173
upperneck 5.190833992345406 -0.15334627311001703 1.2666603837045782
head 4.119713432434269 -0.07064889854977663 0.8964519664273204
lclavicle 1.8617363442038441e-16 -2.3548357698334575e-15
lhumerus -23.25220167087416 -0.18001854957764007 89.43109507269268
lradius 18.651203799349265
lwrist 1.5093040378948532
lhand -24.252699904380194 -3.1376329575665594
lfingers 7.12502
lthumb 2.2333100954392413 26.830387174257876
rclavicle 1.8617363442038441e-16 -2.3548357698334575e-15
rhumerus -25.67699902662546 -21.739093777884076 -78.74789936304737
rradius 24.465801031250976
rwrist 34.30300538918195
rhand -17.01980980773888 -27.22188858748058
rfingers 7.12502
rthumb 9.216230155042476 -57.000489412929014
6
root 0.40944410847722146 17.559699197474227 -13.862889531918924 5.671192707219873 0.5045548456454283 -1.6796522503476707
lfemur -9.249935267547395 8.415176380093035 -17.206603985701978
ltibia 15.473106363051153
lfoot -10.478500436112931 3.4502553361438055
ltoes -7.673463923907228
rfemur -10.907205506527394 -3.802065493898209 20.32890207707088
rtibia 19.013506070169335
rfoot -13.10830048813095 -1.6755322332234632
rtoes 4.228874508774258
lowerback -4.813324665066997 -0.7371261302490941 0.7941063103499351
upperback 1.5469777923606616 -1.1074128474750247 1.7376250582358672
thorax 4.318142861497465 -0.5530537367961559 1.2559139980667697
lowerneck -13.278198217087205 -0.38290346839151834 -2.6599412474292072
upperneck 5.006844218740346 -0.1682453129434811 1.3131101496983815
head 4.053493603367256 -0.0746061672334547 0.9105547300436203
lclavicle 1.8617362759305257e-16 -2.3548357642371023e-15
lhumerus -23.317901562605954 -0.6557638636037071 89.59309487639895
lradius 18.790403632569877
lwrist 1.804313718263285
lhand -24.175500309592323 -3.02009329712883
lfingers 7.12502
lthumb 2.307819690577917 26.947186647807065
rclavicle 1.8617362759305257e-16 -2.3548357642371023e-15
rhumerus -25.533699265446053 -21.789993657968395 -78.74269936864498
rradius 24.39670113408705
rwrist 34.39590493508171
rhand -17.093009498835734 -27.150589189776426
rfingers 7.12502
rthumb 9.14561048342728 -56.93228986273099
7
root 0.42184171301029044 17.55869919727678 -13.867489391812171 5.639112556991008 0.5011758636693802 -1.7123619359115494
lfemur -9.25480501308117 8.48461609464456 -17.21500395761966
ltibia 15.518706634861331
lfoot -10.529000363739367 3.30119581175151
ltoes -7.481114221757341
rfemur -10.860305590818763 -3.721205903265134 20.312902185072137
rtibia 18.97590712758819
rfoot -13.090000508808505 -1.7332621331739175
rtoes 4.27728455822332
lowerback -4.809714044562018 -0.7139574668131281 0.8134040029102497
upperback 1.5171779923859456 -1.0773731514387692 1.745774943650218
thorax 4.284443015546263 -0.5377270600654391 1.2562039973830021
lowerneck -13.19659847099249 -0.38288251064768664 -2.580362075170278
upperneck 4.791344322353844 -0.1788712340890548 1.2604204135571955
head 3.9592239411706833 -0.0797773126202268 0.8756943207993748
lclavicle 1.8617363785605628e-16 -2.354835768154551e-15
lhumerus -23.355601513167116 -1.1144112860754305 89.7333945235746
lradius 18.90260336362875
lwrist 2.177303377834446
lhand -24.243399954037557 -3.086023126089023
lfingers 7.12502
lthumb 2.2423400459454337 26.88198680922951
rclavicle 1.8617363785605628e-16 -2.354835768154551e-15
rhumerus -25.43039938896394 -21.705593923362073 -78.81559926240192
rradius 24.365501204562833
rwrist 34.37320515697923
rhand -17.10130949698648 -27.1083895287368
rfingers 7.12502
rthumb 9.137560449395913 -56.89039017049894
8
root 0.4340363586056168 17.557499209195683 -13.873189784662218 5.592882562583929 0.5332807007566822 -1.7383716724165228
lfemur -9.260825249800432 8.533085815369597 -17.225003911764627
ltibia 15.574607469309546
lfoot -10.582200329463436 3.159345916903737
ltoes -7.300904634831237
rfemur -10.80560595292922 -3.6613862287429924 20.29320229876083
rtibia 18.949707105275312
rfoot -13.080600512644386 -1.8074020456977344
rtoes 4.333714327461774
lowerback -4.79981448538776 -0.6995527134002707 0.8409785666723295
upperback 1.5094180460144293 -1.059173372532608 1.736395105033647
thorax 4.269763041484301 -0.5278202634926201 1.2326943404506083
lowerneck -13.068998892097689 -0.3936063713621293 -2.567762193084323
upperneck 4.489564561327787 -0.19997317862834985 1.2875002799256363
head 3.826444300491649 -0.087223452997646 0.8784972715503333
lclavicle 1.8617363662274133e-16 -2.354835758640761e-15
lhumerus -23.313601601411168 -1.2887510386526555 89.76279463116119
lradius 18.996803285019517
lwrist 2.288143346889884
lhand -24.213100112106495 -3.0999430012207987
lfingers 7.12502
lthumb 2.2715698861062763 26.867686919301054
rclavicle 1.8617363662274133e-16 -2.354835758640761e-15
rhumerus -25.411699405182507 -21.281194434173802 -79.04449889196496
rradius 24.60640073181708
rwrist 34.014405900255355
rhand -17.010409775155402 -27.211788784035964
rfingers 7.12502
rthumb 9.225340258707469 -56.98998946130762
